HIERARCHY
ROOT Hips
{
	OFFSET 0.000000 0.000000 0.000000
	CHANNELS 6 Xposition Yposition Zposition Xrotation Yrotation Zrotation
	JOINT Thigh.L
	{
		OFFSET 0.053769 0.027560 -0.093450
		CHANNELS 3 Xrotation Yrotation Zrotation
		JOINT Shin.L
		{
			OFFSET 0.060631 0.006040 -0.408224
			CHANNELS 3 Xrotation Yrotation Zrotation
			JOINT Foot.L
			{
				OFFSET -0.041938 0.030821 -0.431843
				CHANNELS 3 Xrotation Yrotation Zrotation
				JOINT Toe.L
				{
					OFFSET 0.047764 -0.125812 -0.063931
					CHANNELS 3 Xrotation Yrotation Zrotation
					End Site
					{
						OFFSET 0.000000 0.050000 0.000000
					}
				}
			}
		}
	}
	JOINT Thigh.R
	{
		OFFSET -0.058895 0.021882 -0.106042
		CHANNELS 3 Xrotation Yrotation Zrotation
		JOINT Shin.R
		{
			OFFSET -0.049571 0.013952 -0.389647
			CHANNELS 3 Xrotation Yrotation Zrotation
			JOINT Foot.R
			{
				OFFSET 0.014201 0.019168 -0.440842
				CHANNELS 3 Xrotation Yrotation Zrotation
				JOINT Toe.R
				{
					OFFSET -0.039324 -0.126670 -0.063842
					CHANNELS 3 Xrotation Yrotation Zrotation
					End Site
					{
						OFFSET 0.000000 0.050000 0.000000
					}
				}
			}
		}
	}
	JOINT Spine
	{
		OFFSET -0.002602 0.026074 0.111913
		CHANNELS 3 Xrotation Yrotation Zrotation
		JOINT Spine.2
		{
			OFFSET 0.008530 0.006298 0.140795
			CHANNELS 3 Xrotation Yrotation Zrotation
			JOINT Chest
			{
				OFFSET -0.010460 -0.021307 0.056314
				CHANNELS 3 Xrotation Yrotation Zrotation
				JOINT Neck
				{
					OFFSET -0.011795 0.022611 0.167793
					CHANNELS 3 Xrotation Yrotation Zrotation
					JOINT Head
					{
						OFFSET 0.025131 -0.023292 0.171803
						CHANNELS 3 Xrotation Yrotation Zrotation
						End Site
						{
							OFFSET 0.000000 0.050000 0.000000
						}
					}
				}
				JOINT Clavicle.L
				{
					OFFSET 0.046992 0.003248 0.086522
					CHANNELS 3 Xrotation Yrotation Zrotation
					JOINT UpperArm.L
					{
						OFFSET 0.126614 0.014090 0.057364
						CHANNELS 3 Xrotation Yrotation Zrotation
						JOINT ForeArm.L
						{
							OFFSET 0.268983 0.042192 -0.075198
							CHANNELS 3 Xrotation Yrotation Zrotation
							JOINT Hand.L
							{
								OFFSET 0.272610 0.001113 0.021612
								CHANNELS 3 Xrotation Yrotation Zrotation
								JOINT Thumb1.L
								{
									OFFSET 0.154624 0.000488 0.009484
									CHANNELS 3 Xrotation Yrotation Zrotation
									JOINT Thumb2.L
									{
										OFFSET 0.029906 0.000122 0.002371
										CHANNELS 3 Xrotation Yrotation Zrotation
										End Site
										{
											OFFSET 0.024922 0.000102 0.001976
										}
									}
								}
								JOINT Index1.L
								{
									OFFSET 0.137624 0.000488 0.009484
									CHANNELS 3 Xrotation Yrotation Zrotation
									JOINT Index2.L
									{
										OFFSET 0.029906 0.000122 0.002371
										CHANNELS 3 Xrotation Yrotation Zrotation
										JOINT Index3.L
										{
											OFFSET 0.021931 0.000090 0.001739
											CHANNELS 3 Xrotation Yrotation Zrotation
											End Site
											{
												OFFSET 0.017944 0.000073 0.001423
											}
										}
									}
								}
								JOINT Middle1.L
								{
									OFFSET 0.119624 0.000488 0.009484
									CHANNELS 3 Xrotation Yrotation Zrotation
									JOINT Middle2.L
									{
										OFFSET 0.030903 0.000126 0.002450
										CHANNELS 3 Xrotation Yrotation Zrotation
										JOINT Middle3.L
										{
											OFFSET 0.021931 0.000090 0.001739
											CHANNELS 3 Xrotation Yrotation Zrotation
											End Site
											{
												OFFSET 0.017944 0.000073 0.001423
											}
										}
									}
								}
								JOINT Ring1.L
								{
									OFFSET 0.101624 0.000488 0.009484
									CHANNELS 3 Xrotation Yrotation Zrotation
									JOINT Ring2.L
									{
										OFFSET 0.028909 0.000118 0.002292
										CHANNELS 3 Xrotation Yrotation Zrotation
										JOINT Ring3.L
										{
											OFFSET 0.019937 0.000081 0.001581
											CHANNELS 3 Xrotation Yrotation Zrotation
											End Site
											{
												OFFSET 0.016947 0.000069 0.001344
											}
										}
									}
								}
								JOINT Pinky1.L
								{
									OFFSET 0.085624 0.000488 0.009484
									CHANNELS 3 Xrotation Yrotation Zrotation
									JOINT Pinky2.L
									{
										OFFSET 0.023925 0.000098 0.001897
										CHANNELS 3 Xrotation Yrotation Zrotation
										JOINT Pinky3.L
										{
											OFFSET 0.016947 0.000069 0.001344
											CHANNELS 3 Xrotation Yrotation Zrotation
											End Site
											{
												OFFSET 0.013956 0.000057 0.001106
											}
										}
									}
								}
							}
						}
					}
				}
				JOINT Clavicle.R
				{
					OFFSET -0.047503 0.009405 0.085567
					CHANNELS 3 Xrotation Yrotation Zrotation
					JOINT UpperArm.R
					{
						OFFSET -0.110030 0.009964 0.053741
						CHANNELS 3 Xrotation Yrotation Zrotation
						JOINT ForeArm.R
						{
							OFFSET -0.287112 0.027657 -0.040158
							CHANNELS 3 Xrotation Yrotation Zrotation
							JOINT Hand.R
							{
								OFFSET -0.268874 0.014518 -0.005612
								CHANNELS 3 Xrotation Yrotation Zrotation
								JOINT Thumb1.R
								{
									OFFSET -0.154799 0.006469 -0.002501
									CHANNELS 3 Xrotation Yrotation Zrotation
									JOINT Thumb2.R
									{
										OFFSET -0.029950 0.001617 -0.000625
										CHANNELS 3 Xrotation Yrotation Zrotation
										End Site
										{
											OFFSET -0.024958 0.001348 -0.000521
										}
									}
								}
								JOINT Index1.R
								{
									OFFSET -0.137799 0.006469 -0.002501
									CHANNELS 3 Xrotation Yrotation Zrotation
									JOINT Index2.R
									{
										OFFSET -0.029950 0.001617 -0.000625
										CHANNELS 3 Xrotation Yrotation Zrotation
										JOINT Index3.R
										{
											OFFSET -0.021963 0.001186 -0.000458
											CHANNELS 3 Xrotation Yrotation Zrotation
											End Site
											{
												OFFSET -0.017970 0.000970 -0.000375
											}
										}
									}
								}
								JOINT Middle1.R
								{
									OFFSET -0.119799 0.006469 -0.002501
									CHANNELS 3 Xrotation Yrotation Zrotation
									JOINT Middle2.R
									{
										OFFSET -0.030948 0.001671 -0.000646
										CHANNELS 3 Xrotation Yrotation Zrotation
										JOINT Middle3.R
										{
											OFFSET -0.021963 0.001186 -0.000458
											CHANNELS 3 Xrotation Yrotation Zrotation
											End Site
											{
												OFFSET -0.017970 0.000970 -0.000375
											}
										}
									}
								}
								JOINT Ring1.R
								{
									OFFSET -0.101799 0.006469 -0.002501
									CHANNELS 3 Xrotation Yrotation Zrotation
									JOINT Ring2.R
									{
										OFFSET -0.028952 0.001563 -0.000604
										CHANNELS 3 Xrotation Yrotation Zrotation
										JOINT Ring3.R
										{
											OFFSET -0.019967 0.001078 -0.000417
											CHANNELS 3 Xrotation Yrotation Zrotation
											End Site
											{
												OFFSET -0.016972 0.000916 -0.000354
											}
										}
									}
								}
								JOINT Pinky1.R
								{
									OFFSET -0.085799 0.006469 -0.002501
									CHANNELS 3 Xrotation Yrotation Zrotation
									JOINT Pinky2.R
									{
										OFFSET -0.023960 0.001294 -0.000500
										CHANNELS 3 Xrotation Yrotation Zrotation
										JOINT Pinky3.R
										{
											OFFSET -0.016972 0.000916 -0.000354
											CHANNELS 3 Xrotation Yrotation Zrotation
											End Site
											{
												OFFSET -0.013977 0.000755 -0.000292
											}
										}
									}
								}
							}
						}
					}
				}
			}
		}
	}
}
MOTION
Frames: 8
Frame Time: 0.04166667
0.013264856 -0.059651810 1.550450 -8.095364 -1.643029 1.319344 7.392998 -2.184717 4.438617 1.205960 1.608646 -5.296337 -5.827192 -2.079109 8.731141 -0.348989 -1.462538 -1.272919 3.191612 4.511595 -3.871054 9.192027 0.490445 1.782807 -3.697146 -2.499067 -6.322877 -0.624574 -1.534311 1.026414 6.385609 1.622358 1.584463 2.172589 -1.599220 -2.963192 1.717065 0.772992 0.088362 10.301608 1.579058 3.714390 6.636696 -0.049196 3.165754 0.445796 25.011165 -3.559978 20.990707 43.012361 -24.131271 10.212986 -2.769931 -25.979953 4.780708 5.541833 -11.199302 0.000000 0.000000 0.000000 0.000000 0.000000 0.000000 0.000000 0.000000 0.000000 0.000000 0.000000 0.000000 0.000000 0.000000 0.000000 0.000000 0.000000 0.000000 0.000000 0.000000 0.000000 0.000000 0.000000 0.000000 0.000000 0.000000 0.000000 0.000000 0.000000 0.000000 0.000000 0.000000 0.000000 0.000000 0.000000 0.000000 0.000000 0.000000 0.000000 0.000000 0.000000 0.000000 0.979321 -25.540775 8.429572 22.951905 -42.771315 24.509166 5.388512 4.544610 30.003162 3.845184 -11.315243 8.962104 0.000000 0.000000 0.000000 0.000000 0.000000 0.000000 0.000000 0.000000 0.000000 0.000000 0.000000 0.000000 0.000000 0.000000 0.000000 0.000000 0.000000 0.000000 0.000000 0.000000 0.000000 0.000000 0.000000 0.000000 0.000000 0.000000 0.000000 0.000000 0.000000 0.000000 0.000000 0.000000 0.000000 0.000000 0.000000 0.000000 0.000000 0.000000 0.000000 0.000000 0.000000 0.000000
0.013543465 -0.062378744 1.550674 -7.927478 -1.656890 1.352520 6.888049 -2.162050 4.283093 1.440953 1.575689 -5.118437 -5.617464 -2.000160 8.705448 -0.307624 -1.460333 -1.272246 2.652895 4.546578 -3.658100 9.492955 0.464428 1.813060 -3.431882 -2.546002 -6.377101 -0.569477 -1.571905 1.015433 6.604870 1.665889 1.614995 2.286255 -1.601517 -2.955266 1.632737 0.789043 0.109871 10.277587 1.492135 3.855723 6.572476 -0.046434 3.161699 0.244926 24.935146 -3.680468 21.112746 42.892859 -24.407352 10.122000 -2.725607 -25.993212 4.587461 5.614505 -11.204295 0.000000 0.000000 0.000000 0.000000 0.000000 0.000000 0.000000 0.000000 0.000000 0.000000 0.000000 0.000000 0.000000 0.000000 0.000000 0.000000 0.000000 0.000000 0.000000 0.000000 0.000000 0.000000 0.000000 0.000000 0.000000 0.000000 0.000000 0.000000 0.000000 0.000000 0.000000 0.000000 0.000000 0.000000 0.000000 0.000000 0.000000 0.000000 0.000000 0.000000 0.000000 0.000000 0.925455 -25.599590 8.507461 22.993691 -42.626541 24.752952 5.120733 4.563536 30.025293 3.704693 -11.316309 8.893162 0.000000 0.000000 0.000000 0.000000 0.000000 0.000000 0.000000 0.000000 0.000000 0.000000 0.000000 0.000000 0.000000 0.000000 0.000000 0.000000 0.000000 0.000000 0.000000 0.000000 0.000000 0.000000 0.000000 0.000000 0.000000 0.000000 0.000000 0.000000 0.000000 0.000000 0.000000 0.000000 0.000000 0.000000 0.000000 0.000000 0.000000 0.000000 0.000000 0.000000 0.000000 0.000000
0.013387700 -0.064584860 1.550678 -7.782746 -1.679321 1.430967 6.264971 -2.171844 4.143953 1.812451 1.535952 -4.884216 -5.472131 -1.922146 8.632885 -0.298460 -1.453688 -1.279076 2.022325 4.557783 -3.405707 9.896556 0.394297 1.777901 -3.208776 -2.487688 -6.503511 -0.564849 -1.555955 1.034943 6.916695 1.697406 1.618383 2.382041 -1.644681 -2.958317 1.560716 0.807778 0.142853 10.020442 1.435040 3.995565 6.519936 -0.028095 3.148931 0.053229 24.920514 -3.855588 21.122137 42.744189 -24.558184 9.809981 -2.761783 -26.185116 4.418564 5.655147 -11.212007 0.000000 0.000000 0.000000 0.000000 0.000000 0.000000 0.000000 0.000000 0.000000 0.000000 0.000000 0.000000 0.000000 0.000000 0.000000 0.000000 0.000000 0.000000 0.000000 0.000000 0.000000 0.000000 0.000000 0.000000 0.000000 0.000000 0.000000 0.000000 0.000000 0.000000 0.000000 0.000000 0.000000 0.000000 0.000000 0.000000 0.000000 0.000000 0.000000 0.000000 0.000000 0.000000 0.838732 -25.670968 8.623100 22.993830 -42.457554 24.913533 4.953344 4.650054 30.288103 3.683444 -11.219770 8.889881 0.000000 0.000000 0.000000 0.000000 0.000000 0.000000 0.000000 0.000000 0.000000 0.000000 0.000000 0.000000 0.000000 0.000000 0.000000 0.000000 0.000000 0.000000 0.000000 0.000000 0.000000 0.000000 0.000000 0.000000 0.000000 0.000000 0.000000 0.000000 0.000000 0.000000 0.000000 0.000000 0.000000 0.000000 0.000000 0.000000 0.000000 0.000000 0.000000 0.000000 0.000000 0.000000
0.013767524 -0.066356140 1.550301 -7.568313 -1.632566 1.538108 5.446033 -2.221315 3.989763 2.306731 1.526927 -4.620525 -5.458281 -1.915789 8.550281 -0.305412 -1.440805 -1.284983 1.205889 4.549849 -3.214411 10.392804 0.319955 1.611648 -3.028867 -2.519667 -6.564548 -0.590261 -1.524433 1.060076 7.456455 1.683981 1.593427 2.302328 -1.638055 -2.944683 1.615039 0.760616 0.150996 9.772337 1.451352 4.106777 6.365258 -0.049879 3.202517 -0.091921 24.809484 -4.180971 21.126051 42.705978 -24.883927 9.602951 -2.859502 -26.317674 4.388369 5.733254 -11.218966 0.000000 0.000000 0.000000 0.000000 0.000000 0.000000 0.000000 0.000000 0.000000 0.000000 0.000000 0.000000 0.000000 0.000000 0.000000 0.000000 0.000000 0.000000 0.000000 0.000000 0.000000 0.000000 0.000000 0.000000 0.000000 0.000000 0.000000 0.000000 0.000000 0.000000 0.000000 0.000000 0.000000 0.000000 0.000000 0.000000 0.000000 0.000000 0.000000 0.000000 0.000000 0.000000 0.785457 -25.561048 8.872153 22.905227 -42.354607 25.171145 4.874246 4.873806 30.434888 3.766441 -11.317848 8.876773 0.000000 0.000000 0.000000 0.000000 0.000000 0.000000 0.000000 0.000000 0.000000 0.000000 0.000000 0.000000 0.000000 0.000000 0.000000 0.000000 0.000000 0.000000 0.000000 0.000000 0.000000 0.000000 0.000000 0.000000 0.000000 0.000000 0.000000 0.000000 0.000000 0.000000 0.000000 0.000000 0.000000 0.000000 0.000000 0.000000 0.000000 0.000000 0.000000 0.000000 0.000000 0.000000
0.013835252 -0.067834831 1.549789 -7.335681 -1.631742 1.615892 4.438939 -2.273856 3.817990 3.010639 1.579523 -4.311979 -5.431195 -1.918566 8.457776 -0.296931 -1.419719 -1.289021 0.179384 4.581992 -3.027041 11.104423 0.237580 1.380111 -2.883997 -2.532639 -6.591776 -0.638305 -1.475917 1.085394 8.195946 1.700006 1.555552 2.169866 -1.627092 -2.932228 1.721742 0.706067 0.170351 9.467954 1.494441 4.230390 6.152490 -0.065707 3.203343 -0.236720 24.680892 -4.596509 21.032026 42.662585 -25.214080 9.288947 -3.032760 -26.419266 4.384780 5.766528 -11.187793 0.000000 0.000000 0.000000 0.000000 0.000000 0.000000 0.000000 0.000000 0.000000 0.000000 0.000000 0.000000 0.000000 0.000000 0.000000 0.000000 0.000000 0.000000 0.000000 0.000000 0.000000 0.000000 0.000000 0.000000 0.000000 0.000000 0.000000 0.000000 0.000000 0.000000 0.000000 0.000000 0.000000 0.000000 0.000000 0.000000 0.000000 0.000000 0.000000 0.000000 0.000000 0.000000 0.732501 -25.432977 9.243937 22.733811 -42.280170 25.443586 4.798814 5.186852 30.653266 3.896389 -11.406233 8.928777 0.000000 0.000000 0.000000 0.000000 0.000000 0.000000 0.000000 0.000000 0.000000 0.000000 0.000000 0.000000 0.000000 0.000000 0.000000 0.000000 0.000000 0.000000 0.000000 0.000000 0.000000 0.000000 0.000000 0.000000 0.000000 0.000000 0.000000 0.000000 0.000000 0.000000 0.000000 0.000000 0.000000 0.000000 0.000000 0.000000 0.000000 0.000000 0.000000 0.000000 0.000000 0.000000
0.013893258 -0.069015888 1.549066 -6.975244 -1.615012 1.664018 2.893885 -2.376714 3.589883 4.189761 1.690239 -3.939083 -5.391859 -1.895081 8.344159 -0.330785 -1.427366 -1.322001 -1.384035 4.618979 -2.668959 12.237957 0.115664 1.086837 -2.642266 -2.555940 -6.662798 -0.722548 -1.366571 1.176433 9.222093 1.690045 1.478736 1.981536 -1.639480 -2.934791 1.868837 0.629652 0.197828 9.017871 1.584726 4.458006 5.916108 -0.086120 3.260236 -0.392887 24.434449 -5.230322 20.989082 42.541121 -25.649307 9.085769 -3.249719 -26.684171 4.608634 5.805483 -11.131291 0.000000 0.000000 0.000000 0.000000 0.000000 0.000000 0.000000 0.000000 0.000000 0.000000 0.000000 0.000000 0.000000 0.000000 0.000000 0.000000 0.000000 0.000000 0.000000 0.000000 0.000000 0.000000 0.000000 0.000000 0.000000 0.000000 0.000000 0.000000 0.000000 0.000000 0.000000 0.000000 0.000000 0.000000 0.000000 0.000000 0.000000 0.000000 0.000000 0.000000 0.000000 0.000000 0.663107 -25.224561 9.780831 22.388027 -42.097094 25.783269 4.787226 5.504579 30.976861 4.118055 -11.586161 8.931195 0.000000 0.000000 0.000000 0.000000 0.000000 0.000000 0.000000 0.000000 0.000000 0.000000 0.000000 0.000000 0.000000 0.000000 0.000000 0.000000 0.000000 0.000000 0.000000 0.000000 0.000000 0.000000 0.000000 0.000000 0.000000 0.000000 0.000000 0.000000 0.000000 0.000000 0.000000 0.000000 0.000000 0.000000 0.000000 0.000000 0.000000 0.000000 0.000000 0.000000 0.000000 0.000000
0.013879102 -0.071165633 1.548228 -6.597942 -1.654526 1.659830 1.166542 -2.449549 3.348868 5.542071 1.860311 -3.505644 -5.263091 -1.866575 8.218535 -0.334914 -1.420778 -1.349312 -3.097227 4.706535 -2.376691 13.432511 0.021048 0.817500 -2.349342 -2.600640 -6.664457 -0.808493 -1.259856 1.234673 10.325803 1.707939 1.423703 1.797131 -1.625969 -2.946398 1.968638 0.565677 0.225200 8.665478 1.693262 4.718911 5.702991 -0.123983 3.283666 -0.519288 24.174983 -5.908990 20.836628 42.416068 -26.079008 8.685146 -3.471836 -26.819327 4.743155 5.725277 -11.151610 0.000000 0.000000 0.000000 0.000000 0.000000 0.000000 0.000000 0.000000 0.000000 0.000000 0.000000 0.000000 0.000000 0.000000 0.000000 0.000000 0.000000 0.000000 0.000000 0.000000 0.000000 0.000000 0.000000 0.000000 0.000000 0.000000 0.000000 0.000000 0.000000 0.000000 0.000000 0.000000 0.000000 0.000000 0.000000 0.000000 0.000000 0.000000 0.000000 0.000000 0.000000 0.000000 0.622691 -25.006049 10.417262 21.987429 -42.007129 26.108782 4.592929 5.839411 31.248854 4.188109 -11.717956 9.003944 0.000000 0.000000 0.000000 0.000000 0.000000 0.000000 0.000000 0.000000 0.000000 0.000000 0.000000 0.000000 0.000000 0.000000 0.000000 0.000000 0.000000 0.000000 0.000000 0.000000 0.000000 0.000000 0.000000 0.000000 0.000000 0.000000 0.000000 0.000000 0.000000 0.000000 0.000000 0.000000 0.000000 0.000000 0.000000 0.000000 0.000000 0.000000 0.000000 0.000000 0.000000 0.000000
0.014009684 -0.074369480 1.547148 -6.136200 -1.623282 1.634161 -0.806017 -2.594470 3.069325 7.146041 2.066747 -3.102058 -5.150814 -1.842232 8.149524 -0.354047 -1.396508 -1.386119 -5.022820 4.774984 -2.036452 14.788339 -0.156987 0.541361 -1.993251 -2.672097 -6.678939 -0.926633 -1.136229 1.302830 11.620147 1.711573 1.347930 1.551710 -1.617095 -2.934875 2.113478 0.490822 0.269659 8.180689 1.856169 5.006114 5.458097 -0.216433 3.452440 -0.619331 23.780678 -6.655372 20.721837 42.326383 -26.551072 8.262863 -3.688886 -27.049179 4.788828 5.510770 -11.101626 0.000000 0.000000 0.000000 0.000000 0.000000 0.000000 0.000000 0.000000 0.000000 0.000000 0.000000 0.000000 0.000000 0.000000 0.000000 0.000000 0.000000 0.000000 0.000000 0.000000 0.000000 0.000000 0.000000 0.000000 0.000000 0.000000 0.000000 0.000000 0.000000 0.000000 0.000000 0.000000 0.000000 0.000000 0.000000 0.000000 0.000000 0.000000 0.000000 0.000000 0.000000 0.000000 0.589384 -24.639091 11.067325 21.607864 -41.903107 26.503285 4.372869 6.134765 31.586009 4.213971 -11.715787 9.062721 0.000000 0.000000 0.000000 0.000000 0.000000 0.000000 0.000000 0.000000 0.000000 0.000000 0.000000 0.000000 0.000000 0.000000 0.000000 0.000000 0.000000 0.000000 0.000000 0.000000 0.000000 0.000000 0.000000 0.000000 0.000000 0.000000 0.000000 0.000000 0.000000 0.000000 0.000000 0.000000 0.000000 0.000000 0.000000 0.000000 0.000000 0.000000 0.000000 0.000000 0.000000 0.000000
